<svg width="126" height="45" viewBox="0 0 126 45" fill="none" xmlns="http://www.w3.org/2000/svg">
<path fill-rule="evenodd" clip-rule="evenodd" d="M79.1676 2V18.7224H76.9847V2H79.1676ZM55.3222 18.7224V11.8299H59.2235L62.0798 18.7224H64.6574L61.4992 11.3905C62.3662 11.0821 63.0473 10.5655 63.5427 9.84082C64.0381 9.1161 64.2858 8.26803 64.2858 7.2966C64.2858 5.9551 63.8717 4.87959 63.0435 4.07007C62.2152 3.26054 61.027 2.85578 59.4789 2.85578H53V18.7224H55.3222ZM59.3163 9.7483H55.3222V4.96054H59.3396C60.1446 4.96054 60.7561 5.16871 61.1741 5.58503C61.5921 6.00136 61.8011 6.57188 61.8011 7.2966C61.8011 8.03673 61.5805 8.63039 61.1393 9.07755C60.698 9.52472 60.0904 9.7483 59.3163 9.7483ZM73.7354 17.8088C72.9846 18.6029 71.9976 19 70.7746 19C69.211 19 68.0422 18.4912 67.2681 17.4735C66.4941 16.4558 66.107 14.8444 66.107 12.6395C66.107 10.4653 66.4902 8.86168 67.2565 7.82857C68.0228 6.79546 69.18 6.27891 70.7282 6.27891C72.1215 6.27891 73.1587 6.75306 73.8399 7.70136C74.5211 8.64966 74.8617 10.1492 74.8617 12.2V13.2408H68.3828C68.3982 14.5669 68.5956 15.546 68.9749 16.1782C69.3542 16.8104 69.9618 17.1265 70.7978 17.1265C71.3706 17.1265 71.8312 16.8952 72.1795 16.4327C72.5279 15.9701 72.702 15.3379 72.702 14.5361H74.8617C74.8617 15.9238 74.4862 17.0147 73.7354 17.8088ZM72.5859 11.4367H68.406C68.4834 10.3265 68.704 9.50159 69.0678 8.9619C69.4316 8.42222 69.9851 8.15238 70.7282 8.15238C71.3474 8.15238 71.8119 8.43379 72.1215 8.9966C72.4311 9.55941 72.5859 10.3728 72.5859 11.4367ZM84.1237 4.33605V2H81.8944V4.33605H84.1237ZM81.9409 6.55646H84.1237V18.7224H81.9409V6.55646ZM89.4979 19C90.7983 19 91.7968 18.468 92.4935 17.4041H92.6096C92.7335 17.8821 92.9734 18.256 93.3295 18.5259C93.6856 18.7957 94.119 18.9306 94.6299 18.9306C95.2027 18.9306 95.6594 18.8304 96 18.6299V17.1034H95.3033C95.1176 17.1034 94.9628 17.034 94.8389 16.8952C94.7151 16.7565 94.6531 16.556 94.6531 16.2939V9.7483C94.6531 8.6381 94.3319 7.78231 93.6894 7.18095C93.047 6.57959 92.091 6.27891 90.8215 6.27891C89.614 6.27891 88.6464 6.57574 87.9188 7.16939C87.1912 7.76304 86.8274 8.59184 86.8274 9.65578C86.8274 9.90249 86.8351 10.0721 86.8506 10.1646H89.0102V9.86395C89.0102 9.38594 89.1457 8.98118 89.4166 8.64966C89.6875 8.31814 90.1326 8.15238 90.7519 8.15238C91.4021 8.15238 91.851 8.31043 92.0987 8.62653C92.3464 8.94263 92.4703 9.39365 92.4703 9.97959V11.4367C90.5042 11.4367 88.9909 11.7374 87.9304 12.3388C86.8699 12.9401 86.3397 14.0195 86.3397 15.5769C86.3397 16.8567 86.6648 17.7472 87.315 18.2483C87.9652 18.7494 88.6929 19 89.4979 19ZM88.9754 16.7102C89.2308 16.9723 89.6295 17.1034 90.1713 17.1034C90.806 17.1034 91.3479 16.8413 91.7968 16.317C92.2458 15.7927 92.4703 15.0912 92.4703 14.2122V13.2408C91.2318 13.2408 90.2758 13.395 89.6024 13.7034C88.9289 14.0118 88.5922 14.5823 88.5922 15.415C88.5922 16.0163 88.7199 16.4481 88.9754 16.7102Z" fill="#4F4E5A"/>
<path fill-rule="evenodd" clip-rule="evenodd" d="M45 6.42857C45 2.87817 42.2018 0 38.75 0H6.25C2.79822 0 0 2.87817 0 6.42857V38.5714C0 42.1218 2.79822 45 6.25 45H38.75C42.2018 45 45 42.1218 45 38.5714V6.42857ZM6.25 1.28571H38.75L38.8771 1.28734C41.5798 1.35669 43.75 3.63195 43.75 6.42857V38.5714L43.7484 38.7021C43.681 41.4821 41.4689 43.7143 38.75 43.7143H6.25L6.12293 43.7127C3.42023 43.6433 1.25 41.3681 1.25 38.5714V6.42857L1.25158 6.29787C1.319 3.51795 3.53106 1.28571 6.25 1.28571Z" fill="url(#paint0_linear_0_1437)"/>
<path fill-rule="evenodd" clip-rule="evenodd" d="M77.8014 41.7254V31.3607H79.9378V29.6904H77.8014V27.677C77.8014 26.9448 78.1692 26.5787 78.9048 26.5787H79.9378V25.2746C79.4057 25.0915 78.8657 25 78.3179 25C77.4571 25 76.8349 25.2631 76.4515 25.7894C76.068 26.3156 75.8763 26.9753 75.8763 27.7685V29.6904H74.7963V31.3607H75.8763V41.7254H77.8014ZM57.4232 42C59.0979 42 60.4244 41.6187 61.4026 40.856C62.3808 40.0933 62.8699 38.873 62.8699 37.1952C62.8699 36.2647 62.6469 35.5058 62.2008 34.9186C61.7548 34.3313 61.2148 33.889 60.5809 33.5915C59.947 33.2941 59.1136 32.9776 58.0806 32.642C57.2667 32.3827 56.625 32.1501 56.1555 31.9441C55.6859 31.7382 55.2946 31.4637 54.9816 31.1205C54.6686 30.7773 54.5121 30.3387 54.5121 29.8048C54.5121 29.0879 54.786 28.5426 55.3338 28.1689C55.8816 27.7952 56.6015 27.6083 57.4937 27.6083C58.3232 27.6083 59.0079 27.8295 59.5479 28.2719C60.0879 28.7142 60.3579 29.3244 60.3579 30.1023V30.4455H62.4943V30.1709C62.4943 28.6761 62.0287 27.5664 61.0974 26.8419C60.1661 26.1173 58.9492 25.755 57.4467 25.755C55.9442 25.755 54.7155 26.1135 53.7608 26.8304C52.806 27.5473 52.3287 28.5922 52.3287 29.965C52.3287 30.926 52.5517 31.7001 52.9978 32.2873C53.4438 32.8746 53.9799 33.3208 54.606 33.6258C55.232 33.9309 56.0537 34.2512 57.0711 34.5868C57.9006 34.8461 58.554 35.0825 59.0314 35.2961C59.5088 35.5096 59.9079 35.7956 60.2287 36.1541C60.5496 36.5126 60.71 36.974 60.71 37.5384C60.71 38.3773 60.4166 39.0218 59.8296 39.4717C59.2427 39.9217 58.4093 40.1467 57.3293 40.1467C56.3746 40.1467 55.6037 39.9065 55.0168 39.426C54.4299 38.9455 54.1364 38.24 54.1364 37.3096L54.1599 36.8291H52.0235L52 37.2867C52 38.9035 52.5048 40.0933 53.5143 40.856C54.5238 41.6187 55.8268 42 57.4232 42ZM69.2322 42C70.6878 42 71.7873 41.4852 72.5308 40.4556C73.2742 39.426 73.6459 37.8434 73.6459 35.7079C73.6459 33.5725 73.2742 31.9899 72.5308 30.9603C71.7873 29.9307 70.6878 29.4159 69.2322 29.4159C67.7766 29.4159 66.6771 29.9307 65.9337 30.9603C65.1902 31.9899 64.8185 33.5725 64.8185 35.7079C64.8185 37.8434 65.1902 39.426 65.9337 40.4556C66.6771 41.4852 67.7766 42 69.2322 42ZM66.8376 36.1427C66.8376 38.9341 67.6358 40.3297 69.2322 40.3297C70.8287 40.3297 71.6269 38.9341 71.6269 36.1427V35.2732C71.6269 32.4818 70.8287 31.0861 69.2322 31.0861C67.6358 31.0861 66.8376 32.4818 66.8376 35.2732V36.1427ZM84.2694 41.8627C84.0111 41.9237 83.7646 41.9542 83.5298 41.9542C82.7472 41.9542 82.1838 41.6911 81.8395 41.1649C81.4951 40.6386 81.323 39.9789 81.323 39.1857V31.3607H80.2665V29.6904H81.323L81.7456 26.3499H83.2481V29.6904H84.915V31.3607H83.2481V39.2315C83.2481 39.9637 83.6159 40.3297 84.3515 40.3297H84.915V41.6339C84.7428 41.7254 84.5276 41.8017 84.2694 41.8627ZM90.526 41.7254L91.7938 34.8614C91.9346 34.0682 92.0599 33.1454 92.1694 32.0929H92.2633C92.3572 33.1606 92.4824 34.0834 92.639 34.8614L93.9302 41.7254H96.0666L99.1421 29.6904H97.1935L95.644 36.463C95.4562 37.3324 95.2919 38.2858 95.151 39.323H95.0571C94.9475 38.179 94.8223 37.2257 94.6815 36.463L93.4137 29.6904H91.1834L89.9391 36.463C89.7982 37.2409 89.673 38.1943 89.5635 39.323H89.4695C89.2974 38.0417 89.133 37.0884 88.9765 36.463L87.427 29.6904H85.3141L88.3896 41.7254H90.526ZM104.976 41.5882C104.452 41.8627 103.869 42 103.227 42C102.382 42 101.631 41.7559 100.973 41.2678C100.316 40.7797 99.9873 39.895 99.9873 38.6137C99.9873 37.0731 100.523 36.0168 101.595 35.4448C102.668 34.8728 104.213 34.5868 106.232 34.5868V33.031C106.232 32.4056 106.091 31.9251 105.81 31.5895C105.528 31.2539 105.019 31.0861 104.284 31.0861C103.611 31.0861 103.125 31.2692 102.828 31.6353C102.531 32.0013 102.382 32.4513 102.382 32.9852V33.2598H100.48C100.465 33.1682 100.457 33.0004 100.457 32.7564C100.457 31.6886 100.817 30.865 101.537 30.2853C102.257 29.7057 103.219 29.4159 104.424 29.4159C105.661 29.4159 106.592 29.7057 107.218 30.2853C107.844 30.865 108.157 31.6963 108.157 32.7793V39.5289C108.157 39.7882 108.22 39.9865 108.345 40.1238C108.47 40.2611 108.627 40.3297 108.815 40.3297H109.566V41.6339C109.222 41.817 108.799 41.9085 108.298 41.9085C107.797 41.9085 107.379 41.775 107.042 41.5081C106.706 41.2411 106.475 40.8789 106.35 40.4213H106.232C105.919 40.9246 105.501 41.3136 104.976 41.5882ZM103.673 40.3297C103.11 40.3297 102.691 40.1886 102.417 39.9065C102.143 39.6243 102.006 39.1552 102.006 38.4993C102.006 37.6299 102.359 37.0388 103.063 36.7261C103.767 36.4134 104.824 36.2571 106.232 36.2571V37.3553C106.232 37.9807 106.107 38.5184 105.857 38.9684C105.606 39.4183 105.285 39.7577 104.894 39.9865C104.503 40.2153 104.096 40.3297 103.673 40.3297ZM113.228 34.3809V41.7254H111.303V29.6904H112.759L113.017 31.2692H113.158C113.33 30.7353 113.588 30.293 113.933 29.9421C114.277 29.5913 114.715 29.4159 115.247 29.4159C115.576 29.4159 115.881 29.4769 116.163 29.5989V31.5437H115.529C114.856 31.5437 114.304 31.7687 113.874 32.2187C113.444 32.6687 113.228 33.3894 113.228 34.3809ZM121.962 42C123.167 42 124.141 41.6072 124.885 40.8217C125.628 40.0361 126 38.9722 126 37.6299H124.098C124.098 38.4536 123.907 39.1095 123.523 39.5976C123.14 40.0857 122.635 40.3297 122.009 40.3297C121.085 40.3297 120.409 40.0018 119.978 39.3459C119.548 38.69 119.325 37.6604 119.309 36.2571H126V35.0673C126 33.0843 125.667 31.6467 125.002 30.7544C124.337 29.862 123.316 29.4159 121.938 29.4159C120.373 29.4159 119.207 29.9269 118.44 30.9489C117.673 31.9708 117.29 33.5572 117.29 35.7079C117.29 37.9044 117.677 39.5022 118.452 40.5013C119.227 41.5004 120.397 42 121.962 42ZM119.332 34.5868H123.981C123.981 33.4428 123.809 32.5734 123.464 31.9785C123.12 31.3836 122.611 31.0861 121.938 31.0861C121.109 31.0861 120.487 31.3721 120.072 31.9441C119.657 32.5162 119.411 33.397 119.332 34.5868Z" fill="#4F4E5A"/>
<path fill-rule="evenodd" clip-rule="evenodd" d="M29.4846 15.6621L33.0591 19.3534C35.0979 21.4588 35.0979 24.8728 33.0591 26.9783L22.8501 37.5211C22.2317 38.1597 21.2288 38.1597 20.6106 37.5211L14.4638 31.1734C13.8454 30.5348 13.8454 29.4996 14.4638 28.861L27.2451 15.6621C27.8635 15.0235 28.8662 15.0235 29.4846 15.6621Z" fill="url(#paint1_linear_0_1437)"/>
<path fill-rule="evenodd" clip-rule="evenodd" d="M33.4831 19.068L29.8853 15.3441C29.8842 15.3428 29.8827 15.3417 29.8814 15.3403L23.2533 8.47963C22.6354 7.84012 21.6337 7.84012 21.0161 8.47963L14.875 14.8362C14.2572 15.4758 14.2572 16.5126 14.875 17.1519L20.3882 22.8586L21.2421 23.7424L24.5905 27.2084C25.1624 27.8003 25.5658 28.545 25.751 29.3599C25.8879 29.9616 25.9602 30.5891 25.9602 31.2342C25.9602 32.9631 25.4415 34.5656 24.5579 35.8873L33.4831 26.6489C35.5054 24.5556 35.5054 21.1615 33.4831 19.068Z" fill="url(#paint2_linear_0_1437)"/>
<defs>
<linearGradient id="paint0_linear_0_1437" x1="17.5915" y1="-23.1904" x2="-28.7892" y2="27.4972" gradientUnits="userSpaceOnUse">
<stop stop-color="#FF3C4E"/>
<stop offset="1" stop-color="#7883F6"/>
</linearGradient>
<linearGradient id="paint1_linear_0_1437" x1="24.4651" y1="10.3594" x2="9.31472" y2="22.8301" gradientUnits="userSpaceOnUse">
<stop stop-color="#4354FF"/>
<stop offset="0.514894" stop-color="#4855D7"/>
<stop offset="0.695246" stop-color="#8F97F3"/>
<stop offset="1" stop-color="#98A1F7"/>
</linearGradient>
<linearGradient id="paint2_linear_0_1437" x1="-8.67375" y1="19.9779" x2="30.4159" y2="46.2101" gradientUnits="userSpaceOnUse">
<stop stop-color="#FF727F"/>
<stop offset="1" stop-color="#FF3C4E"/>
</linearGradient>
</defs>
</svg>
